<svg width="1440" height="100" viewBox="0 0 1440 100" fill="none" xmlns="http://www.w3.org/2000/svg">
<g clip-path="url(#clip0_0_68)">
<rect width="1440" height="100" fill="#171819"/>
<g clip-path="url(#clip1_0_68)">
<path d="M393.97 59H389.738L382.906 47.1191H382.809C382.945 49.2174 383.013 50.7142 383.013 51.6094V59H380.037V43.2949H384.238L391.059 55.0576H391.134C391.027 53.0166 390.973 51.5736 390.973 50.7285V43.2949H393.97V59ZM403.496 49.0957C402.801 49.0957 402.257 49.3177 401.863 49.7617C401.469 50.1986 401.244 50.8216 401.186 51.6309H405.784C405.77 50.8216 405.558 50.1986 405.15 49.7617C404.742 49.3177 404.191 49.0957 403.496 49.0957ZM403.958 59.2148C402.024 59.2148 400.513 58.6813 399.425 57.6143C398.336 56.5472 397.792 55.0361 397.792 53.0811C397.792 51.0687 398.293 49.5146 399.296 48.4189C400.305 47.3161 401.698 46.7646 403.474 46.7646C405.172 46.7646 406.493 47.248 407.438 48.2148C408.384 49.1816 408.856 50.5173 408.856 52.2217V53.8115H401.111C401.147 54.7425 401.423 55.4694 401.938 55.9922C402.454 56.515 403.177 56.7764 404.108 56.7764C404.831 56.7764 405.515 56.7012 406.16 56.5508C406.804 56.4004 407.478 56.1605 408.179 55.8311V58.3662C407.607 58.6527 406.994 58.8639 406.343 59C405.691 59.1432 404.896 59.2148 403.958 59.2148ZM422.239 59L421.315 54.7998L420.069 49.4932H419.993L417.802 59H414.279L410.863 46.9902H414.128L415.514 52.3076C415.736 53.2601 415.961 54.5742 416.191 56.25H416.255C416.284 55.7057 416.409 54.8428 416.631 53.6611L416.803 52.748L418.285 46.9902H421.895L423.302 52.748C423.331 52.9056 423.374 53.1383 423.431 53.4463C423.495 53.7542 423.556 54.0837 423.614 54.4346C423.671 54.7783 423.721 55.1185 423.764 55.4551C423.814 55.7845 423.843 56.0495 423.85 56.25H423.914C423.979 55.7344 424.093 55.029 424.258 54.1338C424.423 53.2314 424.541 52.6227 424.613 52.3076L426.052 46.9902H429.264L425.805 59H422.239ZM440.433 55.4336C440.433 56.6654 440.004 57.6035 439.144 58.248C438.292 58.8926 437.014 59.2148 435.309 59.2148C434.436 59.2148 433.691 59.154 433.075 59.0322C432.459 58.9176 431.883 58.7458 431.345 58.5166V55.8096C431.954 56.096 432.638 56.3359 433.397 56.5293C434.163 56.7227 434.837 56.8193 435.417 56.8193C436.605 56.8193 437.2 56.4756 437.2 55.7881C437.2 55.5303 437.121 55.3226 436.964 55.165C436.806 55.0003 436.534 54.8177 436.147 54.6172C435.76 54.4095 435.245 54.1696 434.6 53.8975C433.676 53.5107 432.996 53.1527 432.559 52.8232C432.13 52.4938 431.814 52.1178 431.614 51.6953C431.421 51.2656 431.324 50.7393 431.324 50.1162C431.324 49.0492 431.736 48.2256 432.559 47.6455C433.39 47.0583 434.564 46.7646 436.083 46.7646C437.529 46.7646 438.937 47.0798 440.304 47.71L439.316 50.0732C438.715 49.8154 438.152 49.6042 437.63 49.4395C437.107 49.2747 436.573 49.1924 436.029 49.1924C435.062 49.1924 434.579 49.4538 434.579 49.9766C434.579 50.2702 434.733 50.5244 435.041 50.7393C435.356 50.9541 436.04 51.2728 437.092 51.6953C438.031 52.0749 438.718 52.4294 439.155 52.7588C439.592 53.0882 439.914 53.4678 440.122 53.8975C440.329 54.3271 440.433 54.8392 440.433 55.4336ZM447.112 59H443.836V42.2852H447.112V59ZM456.38 49.0957C455.686 49.0957 455.142 49.3177 454.748 49.7617C454.354 50.1986 454.128 50.8216 454.071 51.6309H458.669C458.654 50.8216 458.443 50.1986 458.035 49.7617C457.627 49.3177 457.075 49.0957 456.38 49.0957ZM456.842 59.2148C454.909 59.2148 453.398 58.6813 452.309 57.6143C451.221 56.5472 450.676 55.0361 450.676 53.0811C450.676 51.0687 451.178 49.5146 452.18 48.4189C453.19 47.3161 454.583 46.7646 456.359 46.7646C458.056 46.7646 459.378 47.248 460.323 48.2148C461.268 49.1816 461.741 50.5173 461.741 52.2217V53.8115H453.996C454.032 54.7425 454.307 55.4694 454.823 55.9922C455.338 56.515 456.062 56.7764 456.993 56.7764C457.716 56.7764 458.4 56.7012 459.045 56.5508C459.689 56.4004 460.362 56.1605 461.064 55.8311V58.3662C460.491 58.6527 459.879 58.8639 459.227 59C458.575 59.1432 457.781 59.2148 456.842 59.2148ZM470.311 56.6045C470.884 56.6045 471.571 56.4792 472.373 56.2285V58.667C471.557 59.0322 470.554 59.2148 469.365 59.2148C468.055 59.2148 467.099 58.8854 466.497 58.2266C465.903 57.5605 465.606 56.5651 465.606 55.2402V49.4502H464.037V48.0645L465.842 46.9688L466.787 44.4336H468.882V46.9902H472.244V49.4502H468.882V55.2402C468.882 55.7057 469.011 56.0495 469.269 56.2715C469.534 56.4935 469.881 56.6045 470.311 56.6045ZM480.717 56.6045C481.29 56.6045 481.978 56.4792 482.78 56.2285V58.667C481.963 59.0322 480.961 59.2148 479.772 59.2148C478.461 59.2148 477.505 58.8854 476.904 58.2266C476.309 57.5605 476.012 56.5651 476.012 55.2402V49.4502H474.444V48.0645L476.249 46.9688L477.194 44.4336H479.289V46.9902H482.651V49.4502H479.289V55.2402C479.289 55.7057 479.418 56.0495 479.675 56.2715C479.94 56.4935 480.288 56.6045 480.717 56.6045ZM491.038 49.0957C490.343 49.0957 489.799 49.3177 489.405 49.7617C489.011 50.1986 488.786 50.8216 488.729 51.6309H493.326C493.312 50.8216 493.101 50.1986 492.692 49.7617C492.284 49.3177 491.733 49.0957 491.038 49.0957ZM491.5 59.2148C489.566 59.2148 488.055 58.6813 486.967 57.6143C485.878 56.5472 485.334 55.0361 485.334 53.0811C485.334 51.0687 485.835 49.5146 486.838 48.4189C487.848 47.3161 489.241 46.7646 491.017 46.7646C492.714 46.7646 494.035 47.248 494.98 48.2148C495.926 49.1816 496.398 50.5173 496.398 52.2217V53.8115H488.653C488.689 54.7425 488.965 55.4694 489.48 55.9922C489.996 56.515 490.719 56.7764 491.65 56.7764C492.374 56.7764 493.058 56.7012 493.702 56.5508C494.347 56.4004 495.02 56.1605 495.722 55.8311V58.3662C495.149 58.6527 494.536 58.8639 493.885 59C493.233 59.1432 492.438 59.2148 491.5 59.2148ZM506.612 46.7646C507.056 46.7646 507.425 46.7969 507.718 46.8613L507.471 49.9336C507.206 49.862 506.884 49.8262 506.504 49.8262C505.459 49.8262 504.642 50.0947 504.055 50.6318C503.475 51.1689 503.185 51.9209 503.185 52.8877V59H499.909V46.9902H502.39L502.873 49.0098H503.035C503.407 48.3366 503.908 47.7959 504.539 47.3877C505.176 46.9723 505.867 46.7646 506.612 46.7646ZM526.834 54.6387C526.834 56.0566 526.322 57.1738 525.298 57.9902C524.281 58.8066 522.863 59.2148 521.044 59.2148C519.369 59.2148 517.886 58.8997 516.597 58.2695V55.1758C517.657 55.6484 518.552 55.9814 519.283 56.1748C520.02 56.3682 520.693 56.4648 521.302 56.4648C522.033 56.4648 522.591 56.3252 522.978 56.0459C523.372 55.7666 523.569 55.3512 523.569 54.7998C523.569 54.4919 523.483 54.2197 523.311 53.9834C523.139 53.7399 522.885 53.5072 522.548 53.2852C522.219 53.0632 521.542 52.7087 520.518 52.2217C519.558 51.7705 518.839 51.3372 518.359 50.9219C517.879 50.5065 517.496 50.0231 517.209 49.4717C516.923 48.9202 516.78 48.2757 516.78 47.5381C516.78 46.1488 517.249 45.0566 518.187 44.2617C519.132 43.4668 520.436 43.0693 522.097 43.0693C522.913 43.0693 523.69 43.166 524.428 43.3594C525.173 43.5527 525.95 43.8249 526.759 44.1758L525.685 46.7646C524.847 46.4209 524.152 46.181 523.601 46.0449C523.057 45.9089 522.52 45.8408 521.99 45.8408C521.359 45.8408 520.876 45.9876 520.539 46.2812C520.203 46.5749 520.035 46.958 520.035 47.4307C520.035 47.7243 520.103 47.9821 520.239 48.2041C520.375 48.4189 520.59 48.6302 520.883 48.8379C521.184 49.0384 521.889 49.4036 522.999 49.9336C524.467 50.6354 525.474 51.3408 526.018 52.0498C526.562 52.7516 526.834 53.6146 526.834 54.6387ZM530.13 43.8857C530.13 42.8187 530.724 42.2852 531.913 42.2852C533.102 42.2852 533.696 42.8187 533.696 43.8857C533.696 44.3942 533.546 44.7917 533.245 45.0781C532.951 45.3574 532.507 45.4971 531.913 45.4971C530.724 45.4971 530.13 44.96 530.13 43.8857ZM533.546 59H530.269V46.9902H533.546V59ZM548.292 46.9902V48.6553L546.412 49.1387C546.756 49.6758 546.928 50.2773 546.928 50.9434C546.928 52.2324 546.477 53.2386 545.575 53.9619C544.679 54.6781 543.433 55.0361 541.836 55.0361L541.245 55.0039L540.762 54.9502C540.425 55.208 540.257 55.4945 540.257 55.8096C540.257 56.2822 540.859 56.5186 542.062 56.5186H544.103C545.421 56.5186 546.423 56.8014 547.111 57.3672C547.805 57.9329 548.153 58.7637 548.153 59.8594C548.153 61.263 547.565 62.3516 546.391 63.125C545.224 63.8984 543.544 64.2852 541.353 64.2852C539.677 64.2852 538.395 63.9915 537.507 63.4043C536.626 62.8242 536.186 62.0078 536.186 60.9551C536.186 60.2318 536.411 59.6266 536.863 59.1396C537.314 58.6527 537.976 58.3053 538.85 58.0977C538.513 57.9544 538.22 57.7217 537.969 57.3994C537.718 57.07 537.593 56.7227 537.593 56.3574C537.593 55.8991 537.726 55.5195 537.991 55.2188C538.256 54.9108 538.639 54.61 539.14 54.3164C538.51 54.0443 538.008 53.6074 537.636 53.0059C537.271 52.4043 537.088 51.6953 537.088 50.8789C537.088 49.5684 537.514 48.555 538.367 47.8389C539.219 47.1227 540.436 46.7646 542.019 46.7646C542.355 46.7646 542.753 46.7969 543.211 46.8613C543.677 46.9186 543.974 46.9616 544.103 46.9902H548.292ZM539.022 60.6973C539.022 61.1484 539.237 61.5029 539.666 61.7607C540.103 62.0186 540.712 62.1475 541.492 62.1475C542.667 62.1475 543.587 61.9863 544.253 61.6641C544.919 61.3418 545.252 60.9014 545.252 60.3428C545.252 59.8916 545.055 59.5801 544.661 59.4082C544.268 59.2363 543.659 59.1504 542.835 59.1504H541.138C540.536 59.1504 540.032 59.29 539.623 59.5693C539.222 59.8558 539.022 60.2318 539.022 60.6973ZM540.214 50.9219C540.214 51.5736 540.361 52.0892 540.655 52.4688C540.955 52.8483 541.41 53.0381 542.019 53.0381C542.635 53.0381 543.086 52.8483 543.372 52.4688C543.659 52.0892 543.802 51.5736 543.802 50.9219C543.802 49.4753 543.208 48.752 542.019 48.752C540.816 48.752 540.214 49.4753 540.214 50.9219ZM562.212 59H558.935V51.9854C558.935 51.1188 558.781 50.4707 558.473 50.041C558.165 49.6042 557.675 49.3857 557.002 49.3857C556.085 49.3857 555.423 49.6937 555.014 50.3096C554.606 50.9183 554.402 51.9316 554.402 53.3496V59H551.126V46.9902H553.629L554.069 48.5264H554.252C554.617 47.9463 555.118 47.5094 555.756 47.2158C556.4 46.915 557.131 46.7646 557.947 46.7646C559.344 46.7646 560.403 47.1442 561.127 47.9033C561.85 48.6553 562.212 49.7438 562.212 51.1689V59ZM574.939 59L574.498 57.4639H574.326C573.975 58.0225 573.478 58.4557 572.833 58.7637C572.189 59.0645 571.455 59.2148 570.631 59.2148C569.22 59.2148 568.157 58.8389 567.441 58.0869C566.724 57.3278 566.366 56.2393 566.366 54.8213V46.9902H569.643V54.0049C569.643 54.8714 569.797 55.5231 570.105 55.96C570.413 56.3896 570.903 56.6045 571.576 56.6045C572.493 56.6045 573.155 56.3001 573.564 55.6914C573.972 55.0755 574.176 54.0586 574.176 52.6406V46.9902H577.452V59H574.939ZM588.332 59.2148C586.921 59.2148 585.814 58.7028 585.012 57.6787H584.841C584.955 58.6813 585.012 59.2614 585.012 59.4189V64.2852H581.736V46.9902H584.4L584.862 48.5479H585.012C585.779 47.359 586.914 46.7646 588.418 46.7646C589.836 46.7646 590.946 47.3125 591.748 48.4082C592.55 49.5039 592.951 51.0257 592.951 52.9736C592.951 54.2555 592.761 55.3691 592.382 56.3145C592.009 57.2598 591.476 57.9795 590.781 58.4736C590.086 58.9678 589.27 59.2148 588.332 59.2148ZM587.365 49.3857C586.556 49.3857 585.965 49.6364 585.592 50.1377C585.22 50.6318 585.027 51.4518 585.012 52.5977V52.9521C585.012 54.2412 585.202 55.165 585.582 55.7236C585.968 56.2822 586.577 56.5615 587.408 56.5615C588.876 56.5615 589.61 55.3512 589.61 52.9307C589.61 51.749 589.427 50.8646 589.062 50.2773C588.704 49.6829 588.138 49.3857 587.365 49.3857Z" fill="white"/>
<rect x="664.5" y="30.5" width="249" height="39" fill="white" stroke="#979797"/>
<g clip-path="url(#clip2_0_68)">
<rect x="913" y="30" width="150" height="40" fill="#00A4E5"/>
<path d="M968.172 52.4229C968.172 53.2607 967.869 53.9209 967.264 54.4033C966.663 54.8857 965.825 55.127 964.75 55.127C963.76 55.127 962.884 54.9408 962.123 54.5684V52.7402C962.749 53.0195 963.278 53.2163 963.709 53.3306C964.145 53.4448 964.543 53.502 964.903 53.502C965.334 53.502 965.665 53.4194 965.893 53.2544C966.126 53.0894 966.242 52.8439 966.242 52.5181C966.242 52.3361 966.191 52.1753 966.09 52.0356C965.988 51.8918 965.838 51.7542 965.639 51.623C965.444 51.4919 965.045 51.2824 964.439 50.9946C963.872 50.728 963.447 50.472 963.164 50.2266C962.88 49.9811 962.654 49.6955 962.484 49.3696C962.315 49.0438 962.23 48.6629 962.23 48.2271C962.23 47.4061 962.508 46.7607 963.062 46.291C963.621 45.8213 964.391 45.5864 965.373 45.5864C965.855 45.5864 966.314 45.6436 966.75 45.7578C967.19 45.8721 967.649 46.0329 968.127 46.2402L967.493 47.77C966.998 47.5669 966.587 47.4251 966.261 47.3447C965.94 47.2643 965.622 47.2241 965.309 47.2241C964.937 47.2241 964.651 47.3109 964.452 47.4844C964.253 47.6579 964.154 47.8843 964.154 48.1636C964.154 48.3371 964.194 48.4894 964.274 48.6206C964.355 48.7476 964.482 48.8724 964.655 48.9951C964.833 49.1136 965.25 49.3294 965.906 49.6426C966.773 50.0573 967.368 50.4741 967.689 50.8931C968.011 51.3078 968.172 51.8177 968.172 52.4229ZM970.354 55V45.7197H972.322V55H970.354ZM978.681 49.7886H982.362V54.6001C981.766 54.7948 981.203 54.9302 980.674 55.0063C980.149 55.0868 979.612 55.127 979.062 55.127C977.661 55.127 976.59 54.7165 975.85 53.8955C975.113 53.0703 974.745 51.8875 974.745 50.3472C974.745 48.8491 975.173 47.6812 976.027 46.8433C976.886 46.0054 978.076 45.5864 979.595 45.5864C980.547 45.5864 981.465 45.7769 982.35 46.1577L981.696 47.7319C981.019 47.3934 980.314 47.2241 979.582 47.2241C978.731 47.2241 978.05 47.5098 977.538 48.0811C977.026 48.6523 976.77 49.4204 976.77 50.3853C976.77 51.3924 976.975 52.1626 977.386 52.6958C977.8 53.2248 978.401 53.4893 979.188 53.4893C979.599 53.4893 980.016 53.4469 980.439 53.3623V51.4263H978.681V49.7886ZM993.311 55H990.81L986.772 47.9795H986.715C986.796 49.2194 986.836 50.1038 986.836 50.6328V55H985.078V45.7197H987.56L991.59 52.6704H991.635C991.571 51.4644 991.54 50.6117 991.54 50.1123V45.7197H993.311V55ZM1003.71 45.7197V51.7246C1003.71 52.4102 1003.55 53.0111 1003.24 53.5273C1002.94 54.0436 1002.5 54.4393 1001.92 54.7144C1001.34 54.9894 1000.65 55.127 999.86 55.127C998.667 55.127 997.74 54.8223 997.08 54.2129C996.419 53.5993 996.089 52.7614 996.089 51.6992V45.7197H998.051V51.4009C998.051 52.116 998.195 52.6408 998.482 52.9751C998.77 53.3094 999.246 53.4766 999.911 53.4766C1000.55 53.4766 1001.02 53.3094 1001.31 52.9751C1001.6 52.6366 1001.75 52.1076 1001.75 51.3882V45.7197H1003.71ZM1008.45 50.0869H1009.09C1009.7 50.0869 1010.15 49.9684 1010.45 49.7314C1010.75 49.4902 1010.9 49.1411 1010.9 48.6841C1010.9 48.2228 1010.78 47.8822 1010.52 47.6621C1010.27 47.4421 1009.88 47.332 1009.34 47.332H1008.45V50.0869ZM1012.89 48.6143C1012.89 49.613 1012.58 50.3768 1011.95 50.9058C1011.33 51.4347 1010.44 51.6992 1009.29 51.6992H1008.45V55H1006.48V45.7197H1009.44C1010.57 45.7197 1011.42 45.9631 1012.01 46.4497C1012.6 46.9321 1012.89 47.6536 1012.89 48.6143Z" fill="white"/>
</g>
<path d="M683.623 55.2002C683.824 55.2002 684.017 55.1865 684.204 55.1592C684.391 55.1273 684.539 55.0954 684.648 55.0635V55.9316C684.525 55.9909 684.343 56.0387 684.102 56.0752C683.865 56.1162 683.65 56.1367 683.459 56.1367C682.01 56.1367 681.285 55.3734 681.285 53.8467V49.3896H680.212V48.8428L681.285 48.3711L681.764 46.7715H682.42V48.5078H684.594V49.3896H682.42V53.7988C682.42 54.25 682.527 54.5964 682.741 54.8379C682.955 55.0794 683.249 55.2002 683.623 55.2002ZM689.387 56.1367C688.28 56.1367 687.405 55.7995 686.762 55.125C686.124 54.4505 685.805 53.514 685.805 52.3154C685.805 51.1077 686.102 50.1484 686.694 49.4375C687.291 48.7266 688.091 48.3711 689.093 48.3711C690.032 48.3711 690.775 48.681 691.322 49.3008C691.869 49.916 692.142 50.7295 692.142 51.7412V52.459H686.981C687.004 53.3385 687.225 54.0062 687.644 54.4619C688.068 54.9176 688.663 55.1455 689.428 55.1455C690.235 55.1455 691.033 54.9769 691.821 54.6396V55.6514C691.42 55.8245 691.039 55.9476 690.679 56.0205C690.324 56.098 689.893 56.1367 689.387 56.1367ZM689.08 49.3213C688.478 49.3213 687.997 49.5173 687.637 49.9092C687.282 50.3011 687.072 50.8434 687.008 51.5361H690.925C690.925 50.8206 690.766 50.2738 690.447 49.8955C690.128 49.5127 689.672 49.3213 689.08 49.3213ZM698.987 53.9561C698.987 54.6533 698.727 55.1911 698.207 55.5693C697.688 55.9476 696.959 56.1367 696.02 56.1367C695.026 56.1367 694.252 55.9795 693.696 55.665V54.6123C694.056 54.7946 694.441 54.9382 694.851 55.043C695.266 55.1478 695.664 55.2002 696.047 55.2002C696.64 55.2002 697.095 55.1068 697.414 54.9199C697.733 54.7285 697.893 54.4391 697.893 54.0518C697.893 53.7601 697.765 53.5117 697.51 53.3066C697.259 53.097 696.767 52.8509 696.034 52.5684C695.336 52.3086 694.84 52.083 694.543 51.8916C694.252 51.6956 694.033 51.4746 693.887 51.2285C693.746 50.9824 693.675 50.6885 693.675 50.3467C693.675 49.736 693.924 49.2552 694.42 48.9043C694.917 48.5488 695.598 48.3711 696.464 48.3711C697.271 48.3711 698.059 48.5352 698.829 48.8633L698.426 49.7861C697.674 49.4762 696.993 49.3213 696.382 49.3213C695.844 49.3213 695.439 49.4056 695.165 49.5742C694.892 49.7428 694.755 49.9753 694.755 50.2715C694.755 50.472 694.805 50.6429 694.906 50.7842C695.01 50.9255 695.177 51.0599 695.405 51.1875C695.633 51.3151 696.07 51.4997 696.717 51.7412C697.606 52.0648 698.205 52.3906 698.515 52.7188C698.829 53.0469 698.987 53.4593 698.987 53.9561ZM703.329 55.2002C703.53 55.2002 703.723 55.1865 703.91 55.1592C704.097 55.1273 704.245 55.0954 704.355 55.0635V55.9316C704.231 55.9909 704.049 56.0387 703.808 56.0752C703.571 56.1162 703.356 56.1367 703.165 56.1367C701.716 56.1367 700.991 55.3734 700.991 53.8467V49.3896H699.918V48.8428L700.991 48.3711L701.47 46.7715H702.126V48.5078H704.3V49.3896H702.126V53.7988C702.126 54.25 702.233 54.5964 702.447 54.8379C702.661 55.0794 702.955 55.2002 703.329 55.2002ZM716.483 51.0166C716.483 51.6637 716.383 52.2562 716.182 52.7939C715.982 53.3317 715.699 53.7487 715.335 54.0449C714.97 54.3411 714.551 54.4893 714.077 54.4893C713.685 54.4893 713.355 54.3708 713.086 54.1338C712.817 53.8968 712.657 53.5938 712.607 53.2246H712.552C712.37 53.6211 712.108 53.931 711.766 54.1543C711.429 54.3776 711.028 54.4893 710.563 54.4893C709.88 54.4893 709.344 54.2568 708.957 53.792C708.574 53.3226 708.383 52.6868 708.383 51.8848C708.383 50.9551 708.651 50.2008 709.189 49.6221C709.727 49.0387 710.433 48.7471 711.308 48.7471C711.618 48.7471 711.969 48.7767 712.361 48.8359C712.753 48.8906 713.106 48.9681 713.421 49.0684L713.25 52.2812V52.4316C713.25 53.2428 713.553 53.6484 714.159 53.6484C714.574 53.6484 714.911 53.4046 715.171 52.917C715.43 52.4248 715.56 51.7868 715.56 51.0029C715.56 50.1781 715.392 49.4557 715.054 48.8359C714.717 48.2161 714.236 47.7399 713.612 47.4072C712.992 47.07 712.279 46.9014 711.472 46.9014C710.456 46.9014 709.572 47.1133 708.82 47.5371C708.068 47.9564 707.494 48.5579 707.097 49.3418C706.701 50.1211 706.503 51.0234 706.503 52.0488C706.503 53.4388 706.87 54.5075 707.603 55.2549C708.337 56.0023 709.394 56.376 710.775 56.376C711.732 56.376 712.726 56.18 713.756 55.7881V56.6973C712.881 57.0801 711.887 57.2715 710.775 57.2715C709.121 57.2715 707.836 56.818 706.92 55.9111C706.008 54.9997 705.552 53.7282 705.552 52.0967C705.552 50.9118 705.796 49.8568 706.284 48.9316C706.772 48.0065 707.467 47.291 708.369 46.7852C709.271 46.2747 710.306 46.0195 711.472 46.0195C712.452 46.0195 713.323 46.2269 714.084 46.6416C714.849 47.0518 715.44 47.6374 715.854 48.3984C716.273 49.1549 716.483 50.0277 716.483 51.0166ZM709.415 51.9121C709.415 53.0697 709.859 53.6484 710.748 53.6484C711.691 53.6484 712.204 52.9352 712.286 51.5088L712.382 49.7246C712.053 49.6335 711.696 49.5879 711.308 49.5879C710.716 49.5879 710.251 49.793 709.914 50.2031C709.581 50.6133 709.415 51.1829 709.415 51.9121ZM717.401 48.5078H718.618L720.258 52.7803C720.618 53.7555 720.842 54.4596 720.928 54.8926H720.983C721.042 54.6602 721.165 54.2637 721.352 53.7031C721.543 53.138 722.163 51.4062 723.211 48.5078H724.428L721.208 57.0391C720.889 57.8822 720.516 58.4792 720.087 58.8301C719.663 59.1855 719.142 59.3633 718.522 59.3633C718.176 59.3633 717.834 59.3245 717.496 59.2471V58.3379C717.747 58.3926 718.027 58.4199 718.337 58.4199C719.117 58.4199 719.673 57.9824 720.005 57.1074L720.422 56.041L717.401 48.5078ZM732.182 52.2471C732.182 53.4684 731.874 54.4232 731.259 55.1113C730.644 55.7949 729.794 56.1367 728.709 56.1367C728.039 56.1367 727.444 55.9795 726.925 55.665C726.405 55.3506 726.004 54.8994 725.722 54.3115C725.439 53.7236 725.298 53.0355 725.298 52.2471C725.298 51.0257 725.603 50.0755 726.214 49.3965C726.825 48.7129 727.672 48.3711 728.757 48.3711C729.805 48.3711 730.637 48.7197 731.252 49.417C731.872 50.1143 732.182 51.0576 732.182 52.2471ZM726.474 52.2471C726.474 53.2041 726.665 53.9333 727.048 54.4346C727.431 54.9359 727.994 55.1865 728.736 55.1865C729.479 55.1865 730.042 54.9382 730.425 54.4414C730.812 53.9401 731.006 53.2087 731.006 52.2471C731.006 51.2946 730.812 50.5723 730.425 50.0801C730.042 49.5833 729.475 49.335 728.723 49.335C727.98 49.335 727.419 49.5788 727.041 50.0664C726.663 50.554 726.474 51.2809 726.474 52.2471ZM735.314 48.5078V53.3682C735.314 53.9788 735.453 54.4346 735.731 54.7354C736.009 55.0361 736.444 55.1865 737.037 55.1865C737.821 55.1865 738.393 54.9723 738.753 54.5439C739.117 54.1156 739.3 53.416 739.3 52.4453V48.5078H740.434V56H739.498L739.334 54.9951H739.272C739.04 55.3643 738.716 55.6468 738.302 55.8428C737.891 56.0387 737.422 56.1367 736.893 56.1367C735.982 56.1367 735.298 55.9202 734.843 55.4873C734.391 55.0544 734.166 54.3617 734.166 53.4092V48.5078H735.314ZM746.335 48.3711C746.668 48.3711 746.967 48.3984 747.231 48.4531L747.074 49.5059C746.764 49.4375 746.49 49.4033 746.253 49.4033C745.647 49.4033 745.128 49.6494 744.695 50.1416C744.266 50.6338 744.052 51.2467 744.052 51.9805V56H742.917V48.5078H743.854L743.984 49.8955H744.039C744.317 49.4079 744.651 49.0319 745.043 48.7676C745.435 48.5033 745.866 48.3711 746.335 48.3711ZM751.867 56.1367C750.76 56.1367 749.885 55.7995 749.242 55.125C748.604 54.4505 748.285 53.514 748.285 52.3154C748.285 51.1077 748.581 50.1484 749.174 49.4375C749.771 48.7266 750.571 48.3711 751.573 48.3711C752.512 48.3711 753.255 48.681 753.802 49.3008C754.349 49.916 754.622 50.7295 754.622 51.7412V52.459H749.461C749.484 53.3385 749.705 54.0062 750.124 54.4619C750.548 54.9176 751.143 55.1455 751.908 55.1455C752.715 55.1455 753.512 54.9769 754.301 54.6396V55.6514C753.9 55.8245 753.519 55.9476 753.159 56.0205C752.804 56.098 752.373 56.1367 751.867 56.1367ZM751.56 49.3213C750.958 49.3213 750.477 49.5173 750.117 49.9092C749.762 50.3011 749.552 50.8434 749.488 51.5361H753.405C753.405 50.8206 753.246 50.2738 752.927 49.8955C752.608 49.5127 752.152 49.3213 751.56 49.3213ZM766.183 56V51.126C766.183 50.529 766.056 50.0824 765.801 49.7861C765.545 49.4854 765.149 49.335 764.611 49.335C763.905 49.335 763.383 49.5378 763.046 49.9434C762.708 50.349 762.54 50.9733 762.54 51.8164V56H761.405V51.126C761.405 50.529 761.277 50.0824 761.022 49.7861C760.767 49.4854 760.368 49.335 759.826 49.335C759.115 49.335 758.593 49.5492 758.261 49.9775C757.932 50.4014 757.768 51.0986 757.768 52.0693V56H756.634V48.5078H757.556L757.741 49.5332H757.796C758.01 49.1686 758.311 48.8838 758.698 48.6787C759.09 48.4736 759.527 48.3711 760.011 48.3711C761.182 48.3711 761.947 48.7949 762.307 49.6426H762.362C762.585 49.2507 762.909 48.9408 763.333 48.7129C763.757 48.485 764.24 48.3711 764.782 48.3711C765.63 48.3711 766.263 48.5898 766.682 49.0273C767.106 49.4603 767.318 50.1553 767.318 51.1123V56H766.183ZM774.34 56L774.115 54.9336H774.06C773.686 55.403 773.313 55.722 772.939 55.8906C772.57 56.0547 772.107 56.1367 771.551 56.1367C770.808 56.1367 770.225 55.9453 769.801 55.5625C769.382 55.1797 769.172 54.6351 769.172 53.9287C769.172 52.4157 770.382 51.6227 772.802 51.5498L774.074 51.5088V51.0439C774.074 50.4561 773.946 50.0231 773.691 49.7451C773.44 49.4626 773.037 49.3213 772.481 49.3213C771.857 49.3213 771.15 49.5127 770.362 49.8955L770.013 49.0273C770.382 48.8268 770.786 48.6696 771.223 48.5557C771.665 48.4417 772.107 48.3848 772.549 48.3848C773.443 48.3848 774.103 48.583 774.532 48.9795C774.965 49.376 775.181 50.0117 775.181 50.8867V56H774.34ZM771.777 55.2002C772.483 55.2002 773.037 55.0065 773.438 54.6191C773.844 54.2318 774.046 53.6895 774.046 52.9922V52.3154L772.912 52.3633C772.009 52.3952 771.358 52.5365 770.957 52.7871C770.56 53.0332 770.362 53.4183 770.362 53.9424C770.362 54.3525 770.485 54.6647 770.731 54.8789C770.982 55.0931 771.33 55.2002 771.777 55.2002ZM778.731 56H777.596V48.5078H778.731V56ZM777.5 46.4775C777.5 46.2178 777.564 46.0286 777.692 45.9102C777.819 45.7871 777.979 45.7256 778.17 45.7256C778.352 45.7256 778.51 45.7871 778.642 45.9102C778.774 46.0332 778.84 46.2223 778.84 46.4775C778.84 46.7327 778.774 46.9242 778.642 47.0518C778.51 47.1748 778.352 47.2363 778.17 47.2363C777.979 47.2363 777.819 47.1748 777.692 47.0518C777.564 46.9242 777.5 46.7327 777.5 46.4775ZM782.342 56H781.207V45.3633H782.342V56ZM784.654 55.2754C784.654 54.9701 784.722 54.7399 784.859 54.585C785 54.4255 785.201 54.3457 785.46 54.3457C785.725 54.3457 785.93 54.4255 786.076 54.585C786.226 54.7399 786.301 54.9701 786.301 55.2754C786.301 55.5716 786.226 55.7995 786.076 55.959C785.925 56.1185 785.72 56.1982 785.46 56.1982C785.228 56.1982 785.034 56.1276 784.879 55.9863C784.729 55.8405 784.654 55.6035 784.654 55.2754ZM791.614 56.1367C790.53 56.1367 789.689 55.804 789.092 55.1387C788.5 54.4688 788.203 53.5231 788.203 52.3018C788.203 51.0485 788.504 50.0801 789.106 49.3965C789.712 48.7129 790.573 48.3711 791.69 48.3711C792.05 48.3711 792.41 48.4098 792.77 48.4873C793.13 48.5648 793.412 48.6559 793.617 48.7607L793.269 49.7246C793.018 49.6243 792.745 49.5423 792.448 49.4785C792.152 49.4102 791.89 49.376 791.662 49.376C790.14 49.376 789.379 50.3467 789.379 52.2881C789.379 53.2087 789.564 53.915 789.933 54.4072C790.307 54.8994 790.858 55.1455 791.587 55.1455C792.211 55.1455 792.852 55.0111 793.508 54.7422V55.7471C793.007 56.0068 792.376 56.1367 791.614 56.1367ZM801.829 52.2471C801.829 53.4684 801.521 54.4232 800.906 55.1113C800.291 55.7949 799.441 56.1367 798.356 56.1367C797.686 56.1367 797.092 55.9795 796.572 55.665C796.053 55.3506 795.652 54.8994 795.369 54.3115C795.086 53.7236 794.945 53.0355 794.945 52.2471C794.945 51.0257 795.251 50.0755 795.861 49.3965C796.472 48.7129 797.32 48.3711 798.404 48.3711C799.452 48.3711 800.284 48.7197 800.899 49.417C801.519 50.1143 801.829 51.0576 801.829 52.2471ZM796.121 52.2471C796.121 53.2041 796.312 53.9333 796.695 54.4346C797.078 54.9359 797.641 55.1865 798.384 55.1865C799.127 55.1865 799.689 54.9382 800.072 54.4414C800.46 53.9401 800.653 53.2087 800.653 52.2471C800.653 51.2946 800.46 50.5723 800.072 50.0801C799.689 49.5833 799.122 49.335 798.37 49.335C797.627 49.335 797.067 49.5788 796.688 50.0664C796.31 50.554 796.121 51.2809 796.121 52.2471ZM813.445 56V51.126C813.445 50.529 813.317 50.0824 813.062 49.7861C812.807 49.4854 812.41 49.335 811.873 49.335C811.166 49.335 810.644 49.5378 810.307 49.9434C809.97 50.349 809.801 50.9733 809.801 51.8164V56H808.667V51.126C808.667 50.529 808.539 50.0824 808.284 49.7861C808.029 49.4854 807.63 49.335 807.087 49.335C806.377 49.335 805.855 49.5492 805.522 49.9775C805.194 50.4014 805.03 51.0986 805.03 52.0693V56H803.895V48.5078H804.818L805.003 49.5332H805.057C805.271 49.1686 805.572 48.8838 805.96 48.6787C806.351 48.4736 806.789 48.3711 807.272 48.3711C808.443 48.3711 809.209 48.7949 809.569 49.6426H809.624C809.847 49.2507 810.17 48.9408 810.594 48.7129C811.018 48.485 811.501 48.3711 812.044 48.3711C812.891 48.3711 813.525 48.5898 813.944 49.0273C814.368 49.4603 814.58 50.1553 814.58 51.1123V56H813.445Z" fill="#48555B"/>
</g>
</g>
<defs>
<clipPath id="clip0_0_68">
<rect width="1440" height="100" fill="white"/>
</clipPath>
<clipPath id="clip1_0_68">
<rect width="685" height="40" fill="white" transform="translate(378 30)"/>
</clipPath>
<clipPath id="clip2_0_68">
<rect width="150" height="40" fill="white" transform="translate(913 30)"/>
</clipPath>
</defs>
</svg>
